<svg width="865" height="300" viewBox="0 0 865 300" fill="none" xmlns="http://www.w3.org/2000/svg">
<path d="M128.418 129.916L127.92 129.964L127.963 130.416H128.418V129.916ZM96.6797 202.914L96.6771 203.414L96.6831 203.414L96.6797 202.914ZM128.418 177.523L128.423 177.023L127.994 177.019L127.924 177.443L128.418 177.523ZM175.537 178.012L176.035 178.054L176.081 177.517L175.542 177.512L175.537 178.012ZM10.7422 152.621L10.2422 152.62L10.2422 152.622L10.7422 152.621ZM175.537 129.916V130.416H176.084L176.035 129.871L175.537 129.916ZM128.916 129.868C128.113 121.467 124.895 114.446 119.461 109.526C114.027 104.605 106.422 101.828 96.9238 101.828V102.828C106.224 102.828 113.573 105.544 118.79 110.267C124.007 114.991 127.136 121.764 127.92 129.964L128.916 129.868ZM96.9238 101.828C84.5141 101.828 74.7776 106.559 68.1588 115.317C61.5548 124.055 58.0938 136.75 58.0938 152.621H59.0938C59.0938 136.876 62.5297 124.424 68.9566 115.92C75.3689 107.435 84.7975 102.828 96.9238 102.828V101.828ZM58.0938 152.621C58.0938 169.284 61.6454 181.952 68.2697 190.48C74.9088 199.027 84.5854 203.352 96.6771 203.414L96.6822 202.414C84.8482 202.354 75.4819 198.134 69.0594 189.866C62.6222 181.579 59.0938 169.162 59.0938 152.621H58.0938ZM96.6831 203.414C105.743 203.352 113.154 200.917 118.632 196.466C124.112 192.014 127.613 185.579 128.911 177.604L127.924 177.443C126.659 185.215 123.263 191.415 118.001 195.69C112.737 199.968 105.561 202.354 96.6763 202.414L96.6831 203.414ZM128.413 178.023L175.532 178.512L175.542 177.512L128.423 177.023L128.413 178.023ZM175.039 177.97C172.496 207.998 146.333 242.941 95.7031 242.941V243.941C146.88 243.941 173.451 208.572 176.035 178.054L175.039 177.97ZM95.7031 242.941C71.5845 242.941 50.5104 234.924 35.4512 219.653C20.3927 204.382 11.303 181.812 11.2422 152.62L10.2422 152.622C10.3034 182.024 19.4633 204.864 34.7392 220.355C50.0145 235.845 71.3598 243.941 95.7031 243.941V242.941ZM11.2422 152.622C11.303 123.312 20.6348 100.741 35.8157 85.4996C50.9982 70.2565 72.0738 62.3008 95.7031 62.3008V61.3008C71.8471 61.3008 50.5033 69.3363 35.1072 84.7939C19.7094 100.253 10.3034 123.093 10.2422 152.62L11.2422 152.622ZM95.7031 62.3008C117.645 62.3008 136.507 68.4391 150.361 79.9466C164.21 91.4498 173.097 108.351 175.039 129.961L176.035 129.871C174.071 108.024 165.074 90.8675 151 79.1774C136.931 67.4916 117.829 61.3008 95.7031 61.3008V62.3008ZM175.537 129.416H128.418V130.416H175.537V129.416ZM196.777 152.621L196.277 152.62L196.277 152.622L196.777 152.621ZM282.471 202.914L282.468 203.414L282.473 203.414L282.471 202.914ZM320.068 152.621L319.568 152.619L319.568 152.623L320.068 152.621ZM367.42 152.621C367.42 181.93 358.028 204.5 342.741 219.741C327.452 234.985 306.223 242.941 282.471 242.941V243.941C306.448 243.941 327.944 235.907 343.447 220.45C358.952 204.99 368.42 182.15 368.42 152.621H367.42ZM282.471 242.941C258.475 242.941 237.216 234.894 221.942 219.605C206.669 204.317 197.338 181.747 197.277 152.62L196.277 152.622C196.339 181.967 205.745 204.807 221.234 220.312C236.722 235.815 258.249 243.941 282.471 243.941V242.941ZM197.277 152.622C197.338 123.312 206.67 100.742 221.941 85.5006C237.215 70.2577 258.473 62.3008 282.471 62.3008V61.3008C258.25 61.3008 236.723 69.335 221.235 84.7928C205.745 100.252 196.339 123.093 196.277 152.62L197.277 152.622ZM282.471 62.3008C306.223 62.3008 327.452 70.2571 342.741 85.5008C358.028 100.742 367.42 123.312 367.42 152.621H368.42C368.42 123.092 358.952 100.252 343.447 84.7926C327.944 69.3356 306.448 61.3008 282.471 61.3008V62.3008ZM244.129 152.621C244.129 168.915 247.496 181.58 253.995 190.199C260.511 198.84 270.128 203.352 282.468 203.414L282.473 202.414C270.4 202.354 261.096 197.955 254.794 189.597C248.475 181.218 245.129 168.798 245.129 152.621H244.129ZM282.473 203.414C294.693 203.352 304.279 198.839 310.779 190.199C317.262 181.58 320.63 168.914 320.568 152.619L319.568 152.623C319.629 168.799 316.283 181.219 309.979 189.598C303.692 197.956 294.418 202.354 282.468 202.414L282.473 203.414ZM320.568 152.623C320.63 136.268 317.262 123.571 310.779 114.952C304.279 106.311 294.691 101.828 282.471 101.828V102.828C294.42 102.828 303.693 107.195 309.979 115.553C316.282 123.932 319.629 136.382 319.568 152.619L320.568 152.623ZM282.471 101.828C270.129 101.828 260.511 106.31 253.995 114.951C247.496 123.571 244.129 136.267 244.129 152.621H245.129C245.129 136.382 248.476 123.932 254.794 115.553C261.095 107.196 270.398 102.828 282.471 102.828V101.828ZM390.625 241H390.125V241.5H390.625V241ZM390.625 64.2422V63.7422H390.125V64.2422H390.625ZM437.012 64.2422H437.512V63.7422H437.012V64.2422ZM437.012 203.402H436.512V203.902H437.012V203.402ZM509.033 203.402H509.533V202.902H509.033V203.402ZM509.033 241V241.5H509.533V241H509.033ZM391.125 241V64.2422H390.125V241H391.125ZM390.625 64.7422H437.012V63.7422H390.625V64.7422ZM436.512 64.2422V203.402H437.512V64.2422H436.512ZM437.012 203.902H509.033V202.902H437.012V203.902ZM508.533 203.402V241H509.533V203.402H508.533ZM509.033 240.5H390.625V241.5H509.033V240.5ZM520.752 152.621L520.252 152.62L520.252 152.622L520.752 152.621ZM606.445 202.914L606.443 203.414L606.448 203.414L606.445 202.914ZM644.043 152.621L643.543 152.619L643.543 152.623L644.043 152.621ZM691.395 152.621C691.395 181.93 682.003 204.5 666.715 219.741C651.426 234.985 630.198 242.941 606.445 242.941V243.941C630.422 243.941 651.918 235.907 667.422 220.45C682.927 204.99 692.395 182.15 692.395 152.621H691.395ZM606.445 242.941C582.449 242.941 561.19 234.894 545.916 219.605C530.644 204.317 521.313 181.747 521.252 152.62L520.252 152.622C520.313 181.967 529.72 204.807 545.209 220.312C560.697 235.815 582.224 243.941 606.445 243.941V242.941ZM521.252 152.622C521.313 123.312 530.644 100.742 545.916 85.5006C561.189 70.2577 582.448 62.3008 606.445 62.3008V61.3008C582.225 61.3008 560.698 69.335 545.21 84.7928C529.719 100.252 520.313 123.093 520.252 152.62L521.252 152.622ZM606.445 62.3008C630.198 62.3008 651.426 70.2571 666.715 85.5008C682.003 100.742 691.395 123.312 691.395 152.621H692.395C692.395 123.092 682.927 100.252 667.422 84.7926C651.918 69.3356 630.422 61.3008 606.445 61.3008V62.3008ZM568.104 152.621C568.104 168.915 571.471 181.58 577.97 190.199C584.485 198.84 594.102 203.352 606.443 203.414L606.448 202.414C594.374 202.354 585.07 197.955 578.768 189.597C572.45 181.218 569.104 168.798 569.104 152.621H568.104ZM606.448 203.414C618.668 203.352 628.254 198.839 634.753 190.199C641.237 181.58 644.604 168.914 644.543 152.619L643.543 152.623C643.604 168.799 640.257 181.219 633.954 189.598C627.667 197.956 618.393 202.354 606.443 202.414L606.448 203.414ZM644.543 152.623C644.604 136.268 641.237 123.571 634.753 114.952C628.253 106.311 618.666 101.828 606.445 101.828V102.828C618.395 102.828 627.667 107.195 633.954 115.553C640.257 123.932 643.604 136.382 643.543 152.619L644.543 152.623ZM606.445 101.828C594.104 101.828 584.486 106.31 577.97 114.951C571.471 123.571 568.104 136.267 568.104 152.621H569.104C569.104 136.382 572.45 123.932 578.768 115.553C585.07 107.196 594.373 102.828 606.445 102.828V101.828ZM714.6 241H714.1V241.5H714.6V241ZM714.6 64.2422V63.7422H714.1V64.2422H714.6ZM824.951 174.716L824.737 174.264L824.259 174.491L824.512 174.955L824.951 174.716ZM861.084 241V241.5H861.926L861.523 240.761L861.084 241ZM810.547 241L810.106 241.235L810.247 241.5H810.547V241ZM779.175 182.162L779.616 181.927L779.475 181.662H779.175V182.162ZM760.986 182.162V181.662H760.486V182.162H760.986ZM760.986 241V241.5H761.486V241H760.986ZM760.986 145.785H760.486V146.285H760.986V145.785ZM806.641 124.057L806.141 124.053L806.141 124.061L806.641 124.057ZM779.053 101.352L779.056 100.852H779.053V101.352ZM760.986 101.352V100.852H760.486V101.352H760.986ZM715.1 241V64.2422H714.1V241H715.1ZM714.6 64.7422H789.795V63.7422H714.6V64.7422ZM789.795 64.7422C809.478 64.7422 825.706 70.3306 837.007 80.5133C848.301 90.6904 854.725 105.502 854.725 124.057H855.725C855.725 105.258 849.209 90.1622 837.676 79.7704C826.15 69.3843 809.662 63.7422 789.795 63.7422V64.7422ZM854.725 124.057C854.725 148.29 843.595 165.319 824.737 174.264L825.165 175.168C844.394 166.047 855.725 148.652 855.725 124.057H854.725ZM824.512 174.955L860.645 241.239L861.523 240.761L825.39 174.477L824.512 174.955ZM861.084 240.5H810.547V241.5H861.084V240.5ZM810.988 240.765L779.616 181.927L778.734 182.397L810.106 241.235L810.988 240.765ZM779.175 181.662H760.986V182.662H779.175V181.662ZM760.486 182.162V241H761.486V182.162H760.486ZM760.986 240.5H714.6V241.5H760.986V240.5ZM760.986 146.285H779.053V145.285H760.986V146.285ZM779.053 146.285C787.826 146.285 794.881 144.693 799.736 141.09C804.622 137.466 807.203 131.866 807.141 124.053L806.141 124.061C806.201 131.628 803.716 136.893 799.141 140.287C794.536 143.704 787.736 145.285 779.053 145.285V146.285ZM807.141 124.061C807.203 116.129 804.625 110.32 799.747 106.497C794.893 102.692 787.837 100.913 779.056 100.852L779.049 101.852C787.725 101.912 794.524 103.673 799.13 107.284C803.713 110.876 806.201 116.36 806.141 124.053L807.141 124.061ZM779.053 100.852H760.986V101.852H779.053V100.852ZM760.486 101.352V145.785H761.486V101.352H760.486Z" fill="white" fill-opacity="0.5"/>
<path d="M245.704 160.672C245.704 168.928 243.112 175.072 237.928 179.104C232.808 183.136 225.416 185.152 215.752 185.152C206.088 185.152 198.664 183.136 193.48 179.104C188.36 175.072 185.8 168.928 185.8 160.672C185.8 152.416 188.36 146.272 193.48 142.24C198.664 138.208 206.088 136.192 215.752 136.192C225.416 136.192 232.808 138.208 237.928 142.24C243.112 146.272 245.704 152.416 245.704 160.672ZM205.768 160.672C205.768 166.368 206.024 170.752 206.536 173.824C207.112 176.896 208.104 179.136 209.512 180.544C210.92 181.952 213 182.656 215.752 182.656C218.504 182.656 220.584 181.952 221.992 180.544C223.4 179.136 224.36 176.896 224.872 173.824C225.448 170.752 225.736 166.368 225.736 160.672C225.736 154.976 225.448 150.592 224.872 147.52C224.36 144.448 223.4 142.208 221.992 140.8C220.584 139.392 218.504 138.688 215.752 138.688C213 138.688 210.92 139.392 209.512 140.8C208.104 142.208 207.112 144.448 206.536 147.52C206.024 150.592 205.768 154.976 205.768 160.672ZM258.629 137.344V129.664C258.629 124.352 260.261 120.416 263.525 117.856C266.789 115.232 272.197 113.92 279.749 113.92C285.957 113.92 291.045 114.88 295.013 116.8L293.861 129.376H291.845C290.565 125.728 289.541 123.104 288.773 121.504C288.005 119.84 286.981 118.56 285.701 117.664C284.485 116.704 282.789 116.224 280.613 116.224C278.693 116.224 277.285 116.608 276.389 117.376C275.493 118.144 275.045 119.328 275.045 120.928C275.045 122.336 275.173 123.616 275.429 124.768C275.685 125.856 276.037 127.136 276.485 128.608C276.805 129.568 277.061 130.56 277.253 131.584C277.509 132.544 277.637 133.536 277.637 134.56V137.344H289.253V139.84H277.637V179.296C277.637 180 277.765 180.48 278.021 180.736C278.341 180.992 278.981 181.216 279.941 181.408L283.493 182.272V184H252.965V182.272L256.325 181.504C257.285 181.312 257.893 181.088 258.149 180.832C258.469 180.576 258.629 180.096 258.629 179.392V139.84H252.389V137.344H258.629ZM323.643 139.84V137.344C325.627 137.344 327.099 137.184 328.059 136.864C329.019 136.544 329.979 135.968 330.939 135.136L348.027 119.776H348.891V137.344H361.275V139.84H348.891V172.096C348.891 175.168 349.243 177.344 349.947 178.624C350.715 179.84 351.995 180.448 353.787 180.448C355.195 180.448 356.443 180.16 357.531 179.584C358.619 179.008 359.803 178.016 361.083 176.608L362.619 178.432C358.587 182.912 352.635 185.152 344.763 185.152C339.451 185.152 335.643 184.032 333.339 181.792C331.035 179.552 329.883 176.064 329.883 171.328V139.84H323.643ZM428.599 179.392C428.599 180.096 428.727 180.576 428.983 180.832C429.303 181.088 429.943 181.312 430.903 181.504L434.263 182.272V184H414.295C412.567 184 411.319 183.552 410.551 182.656C409.783 181.76 409.399 180.416 409.399 178.624V149.44C409.399 146.56 408.919 144.512 407.959 143.296C407.063 142.08 405.527 141.472 403.351 141.472C399.511 141.472 395.575 143.072 391.543 146.272V179.392C391.543 180.096 391.671 180.608 391.927 180.928C392.247 181.184 392.855 181.408 393.751 181.6L397.015 182.272V184H366.679V182.272L370.039 181.504C370.999 181.312 371.607 181.088 371.863 180.832C372.183 180.576 372.343 180.096 372.343 179.392V121.408C372.343 120.704 372.183 120.224 371.863 119.968C371.607 119.712 370.999 119.488 370.039 119.296L366.679 118.528V116.8L389.719 113.92H391.543V143.296C393.975 141.312 396.919 139.648 400.375 138.304C403.831 136.896 407.703 136.192 411.991 136.192C417.943 136.192 422.199 137.44 424.759 139.936C427.319 142.432 428.599 146.176 428.599 151.168V179.392ZM460.951 159.424C461.015 166.528 462.135 171.936 464.311 175.648C466.551 179.36 470.711 181.216 476.791 181.216C479.799 181.216 482.455 180.768 484.759 179.872C487.127 178.976 489.559 177.696 492.055 176.032L493.303 177.856C487.351 182.72 479.479 185.152 469.687 185.152C460.855 185.152 453.879 183.04 448.759 178.816C443.703 174.528 441.175 168.288 441.175 160.096C441.175 152.352 443.767 146.432 448.951 142.336C454.135 138.24 461.399 136.192 470.743 136.192C476.055 136.192 480.535 137.024 484.183 138.688C487.831 140.352 490.519 142.592 492.247 145.408C494.039 148.16 494.935 151.232 494.935 154.624C494.935 156.352 494.775 157.952 494.455 159.424H460.951ZM470.167 138.496C466.647 138.496 464.247 139.968 462.967 142.912C461.687 145.856 461.015 150.528 460.951 156.928H477.079V149.728C477.079 145.824 476.599 142.976 475.639 141.184C474.743 139.392 472.919 138.496 470.167 138.496ZM553.134 182.848C556.142 182.848 558.35 182.4 559.758 181.504C561.23 180.608 561.966 179.04 561.966 176.8C561.966 175.264 561.582 174.016 560.814 173.056C560.046 172.096 558.83 171.232 557.166 170.464C555.502 169.696 552.846 168.64 549.198 167.296C542.99 165.056 538.574 162.752 535.95 160.384C533.326 157.952 532.014 154.624 532.014 150.4C532.014 145.6 533.806 142.048 537.39 139.744C540.974 137.376 546.414 136.192 553.71 136.192C557.422 136.192 561.07 136.576 564.654 137.344C568.238 138.048 571.022 138.88 573.006 139.84L571.854 151.36H570.222C568.494 147.072 566.414 143.84 563.982 141.664C561.55 139.424 558.03 138.304 553.422 138.304C550.478 138.304 548.206 138.72 546.606 139.552C545.006 140.32 544.206 141.76 544.206 143.872C544.206 145.344 544.558 146.528 545.262 147.424C546.03 148.32 547.182 149.152 548.718 149.92C550.318 150.688 552.942 151.808 556.59 153.28C561.838 155.392 565.806 157.216 568.494 158.752C571.182 160.288 573.166 162.048 574.446 164.032C575.726 166.016 576.366 168.512 576.366 171.52C576.366 176.32 574.51 179.808 570.798 181.984C567.15 184.096 561.646 185.152 554.286 185.152C550.382 185.152 546.286 184.768 541.998 184C537.774 183.296 534.606 182.464 532.494 181.504L533.838 168.448H535.47C536.622 173.504 538.67 177.184 541.614 179.488C544.558 181.728 548.398 182.848 553.134 182.848ZM627.022 144.832C627.022 141.696 625.998 140 623.95 139.744L622.894 139.648V137.92C626.734 136.768 630.478 136.192 634.126 136.192C637.902 136.192 640.526 136.864 641.998 138.208C643.47 139.552 644.206 141.504 644.206 144.064C644.206 147.584 642.862 150.784 640.174 153.664C637.486 156.544 632.782 158.464 626.062 159.424C627.79 159.872 629.23 160.544 630.382 161.44C631.534 162.336 632.846 163.712 634.318 165.568L644.974 179.584C645.55 180.288 646.03 180.8 646.414 181.12C646.798 181.376 647.342 181.568 648.046 181.696L651.022 182.272V184H632.59C630.862 184 629.518 183.744 628.558 183.232C627.598 182.656 626.766 181.824 626.062 180.736L611.182 160H607.918V179.392C607.918 180.096 608.046 180.608 608.302 180.928C608.622 181.184 609.23 181.408 610.126 181.6L613.39 182.272V184H583.054V182.272L586.414 181.504C587.374 181.312 587.982 181.088 588.238 180.832C588.558 180.576 588.718 180.096 588.718 179.392V121.408C588.718 120.704 588.558 120.224 588.238 119.968C587.982 119.712 587.374 119.488 586.414 119.296L583.054 118.528V116.8L606.094 113.92H607.918V157.504H613.486C618.542 157.504 622.062 156.416 624.046 154.24C626.03 152 627.022 148.864 627.022 144.832ZM680.595 139.36C679.123 139.68 678.387 140.288 678.387 141.184C678.387 141.568 678.547 142.08 678.867 142.72L690.003 165.088L700.467 140.704C700.659 140.32 700.755 140 700.755 139.744C700.755 139.36 700.339 139.136 699.507 139.072L697.011 138.784V137.344H708.051V138.784L705.555 139.168C704.787 139.296 704.243 139.456 703.923 139.648C703.603 139.84 703.283 140.288 702.963 140.992L684.243 184C681.683 189.952 679.571 194.304 677.906 197.056C676.307 199.872 674.483 202.016 672.435 203.488C670.451 205.024 667.763 206.208 664.371 207.04L659.187 192.448C663.539 192.256 667.667 191.52 671.571 190.24C675.475 189.024 678.835 187.456 681.651 185.536L658.515 141.376C658.195 140.8 657.811 140.384 657.363 140.128C656.979 139.872 656.467 139.68 655.827 139.552L652.947 138.784V137.344H683.091V138.784L680.595 139.36Z" fill="white"/>
</svg>
